<svg width="272" height="48" viewBox="0 0 272 48" fill="none" xmlns="http://www.w3.org/2000/svg" role="img" aria-label="Mailhouse Media">
  <g transform="translate(6,6) scale(0.36)"><path d="M3 15 Q3 6 12 6 L47 6 L47 92 L35 92 L35 18 L31 18 L31 70 L19 70 L19 18 L15 18 L15 54 L3 54 Z" fill="#030b18"></path><path d="M97 15 Q97 6 88 6 L53 6 L53 92 L65 92 L65 18 L69 18 L69 70 L81 70 L81 18 L85 18 L85 54 L97 54 Z" fill="#030b18"></path><rect x="47" y="45" width="6" height="14" fill="#030b18"></rect></g>
  <text x="54" y="32" font-family="Archivo, Arial, sans-serif" font-weight="900" font-size="26" letter-spacing="-0.6" fill="#030b18">MAILHOUSE</text>
  <text x="216" y="32" font-family="&#39;Space Mono&#39;, monospace" font-weight="700" font-size="13" letter-spacing="2" fill="#fe0032">MEDIA</text>
</svg>